<svg xmlns="http://www.w3.org/2000/svg" viewBox="0 0 200 200" width="140" height="140" class="_root_4qbvj_4 _live_4qbvj_2"><g class="_arrive_4qbvj_144"><ellipse cx="100" cy="189" rx="64" ry="7.5" fill="rgba(59, 42, 32, 0.13)"></ellipse><g class="_breathe_4qbvj_32"><g class="_stretchArmL_4qbvj_103"><g><path d="M56 124 Q34 104 30 64" stroke="#8A5536" stroke-width="17" stroke-linecap="round" fill="none"></path><g><circle cx="30" cy="60" r="10.88" fill="#8A5536"></circle><ellipse cx="26.736" cy="55.8656" rx="4.896000000000001" ry="3.0464000000000007" fill="#A7704A" opacity="0.7" transform="rotate(-25 26.736 55.8656)"></ellipse></g></g></g><g class="_stretchArmR_4qbvj_107"><g><path d="M144 124 Q166 104 170 64" stroke="#8A5536" stroke-width="17" stroke-linecap="round" fill="none"></path><g><circle cx="170" cy="60" r="10.88" fill="#8A5536"></circle><ellipse cx="166.736" cy="55.8656" rx="4.896000000000001" ry="3.0464000000000007" fill="#A7704A" opacity="0.7" transform="rotate(-25 166.736 55.8656)"></ellipse></g></g></g><g><clipPath id="k_r_c_-bd"><path d="M100 98 C147 98 169 123 169 153 C169 178 151 189 100 189 C49 189 31 178 31 153 C31 123 53 98 100 98 Z"></path></clipPath><path d="M100 98 C147 98 169 123 169 153 C169 178 151 189 100 189 C49 189 31 178 31 153 C31 123 53 98 100 98 Z" fill="#A96F47"></path><g clip-path="url(#k_r_c_-bd)"><path d="M100 98 C147 98 169 123 169 153 C169 178 151 189 100 189 C49 189 31 178 31 153 C31 123 53 98 100 98 Z" fill="#C98B5B" transform="translate(-9 -7)"></path></g></g><g><g><rect x="74.5" y="176" width="17" height="15" rx="7" fill="#8A5536"></rect><ellipse cx="80.5" cy="180" rx="3.4" ry="2.2" fill="#A7704A" opacity="0.8"></ellipse></g><g><rect x="108.5" y="176" width="17" height="15" rx="7" fill="#8A5536"></rect><ellipse cx="114.5" cy="180" rx="3.4" ry="2.2" fill="#A7704A" opacity="0.8"></ellipse></g></g><g transform="translate(0 -3) rotate(0 100 163) translate(100 163) scale(1) translate(-100 -163)"><g class="_earL_4qbvj_45"><circle cx="57" cy="45" r="8.2" fill="#9A6440"></circle><circle cx="55.2" cy="43.4" r="3.8" fill="#6E4329"></circle></g><g class="_earR_4qbvj_50"><circle cx="143" cy="45" r="8.2" fill="#9A6440"></circle><circle cx="144.8" cy="43.4" r="3.8" fill="#6E4329"></circle></g><clipPath id="k_r_c_-hd"><path d="M100 34 C132 34 148 38 148 66 V121 C148 149 131 163 100 163 C69 163 52 149 52 121 V66 C52 38 68 34 100 34 Z"></path></clipPath><path d="M100 34 C132 34 148 38 148 66 V121 C148 149 131 163 100 163 C69 163 52 149 52 121 V66 C52 38 68 34 100 34 Z" fill="#A96F47"></path><g clip-path="url(#k_r_c_-hd)"><path d="M100 34 C132 34 148 38 148 66 V121 C148 149 131 163 100 163 C69 163 52 149 52 121 V66 C52 38 68 34 100 34 Z" fill="#C98B5B" transform="translate(-7 -5)"></path><path d="M58 70 C58 52 66 42 80 39 C70 47 65 57 64 71 Z" fill="#DEA676" opacity="0.75"></path><path d="M30 112 C50 80 150 80 170 112 V200 H30 Z" fill="#93603E"></path><g><clipPath id="k_r_c_-sn"><path d="M30 112 C50 80 150 80 170 112 V200 H30 Z"></path></clipPath><g clip-path="url(#k_r_c_-sn)"><path d="M100 34 C132 34 148 38 148 66 V121 C148 149 131 163 100 163 C69 163 52 149 52 121 V66 C52 38 68 34 100 34 Z" fill="#B0764D" transform="translate(-7 -5)"></path><path d="M57 101 C66 92 82 88.4 100 88" stroke="#C58C5E" stroke-width="6" stroke-linecap="round" fill="none" transform="translate(0 3.4)"></path></g></g><g stroke="#A96F47" stroke-width="2.6" stroke-linecap="round" opacity="0.7"><path d="M92 40 l2 5"></path><path d="M100 39 v5"></path><path d="M108 40 l-2 5"></path></g></g><ellipse cx="65" cy="122" rx="7.5" ry="4.8" fill="#F0877F" opacity="0.55"></ellipse><ellipse cx="135" cy="122" rx="7.5" ry="4.8" fill="#F0877F" opacity="0.55"></ellipse><path d="M80 96.5 C80 91.5 86 90 100 90 C114 90 120 91.5 120 96.5 C120 102.5 111.5 105.5 100 105.5 C88.5 105.5 80 102.5 80 96.5 Z" fill="#352219"></path><ellipse cx="91" cy="93.6" rx="5.4" ry="1.7" fill="#FFFFFF" opacity="0.4"></ellipse><g><path d="M100 104 V109" stroke="#4A2B1D" stroke-width="2.6" stroke-linecap="round" stroke-linejoin="round" fill="none"></path><ellipse cx="100" cy="117" rx="6.2" ry="7.8" fill="#4A2B1D"></ellipse><ellipse cx="100" cy="121" rx="3.8" ry="2.8" fill="#EF7F7C"></ellipse></g><g><path d="M63.5 62 Q70 68 76.5 62" stroke="#2A1B13" stroke-width="3.3" stroke-linecap="round" fill="none"></path><path d="M123.5 62 Q130 68 136.5 62" stroke="#2A1B13" stroke-width="3.3" stroke-linecap="round" fill="none"></path></g><g transform="translate(100 34.5) rotate(6)"><g class="_yuzu_4qbvj_55"><path d="M2 -26 C8 -37 20 -39 27 -34 C21 -25 11 -22 2 -26 Z" fill="#6DB85A"></path><path d="M2 -26 C11 -22 21 -25 27 -34 C19 -29 10 -27 2 -26 Z" fill="#4E9A43"></path><ellipse cx="0" cy="-12.5" rx="15" ry="13.2" fill="#EFA325"></ellipse><ellipse cx="-2" cy="-14.2" rx="12.8" ry="11.3" fill="#FFC83D"></ellipse><ellipse cx="-6" cy="-18.6" rx="4.3" ry="2.8" fill="#FFE68A" transform="rotate(-30 -6 -18.6)"></ellipse><g fill="#EFA325" opacity="0.75"><circle cx="5" cy="-16" r="0.95"></circle><circle cx="8" cy="-10.5" r="0.85"></circle><circle cx="3" cy="-7.5" r="0.85"></circle><circle cx="-4" cy="-9.5" r="0.75"></circle></g><rect x="-1.7" y="-29" width="3.4" height="5.2" rx="1.7" fill="#6B4A2B"></rect></g></g></g></g></g></svg>