<!-- Kettle maskable app icon — generated from src/art/AppIcon.tsx by scripts/render-icons.mjs --export -->
<svg width="512" height="512" xmlns="http://www.w3.org/2000/svg" viewBox="0 0 512 512"><rect width="512" height="512" fill="#FFF3E2"></rect><circle cx="256" cy="300" r="205" fill="#FFE2B3"></circle><g transform="translate(-4 30) scale(2.6)"><g><ellipse cx="100" cy="188" rx="62" ry="7.5" fill="rgba(59, 42, 32, 0.13)"></ellipse><g><g transform="translate(0 0)"><g><ellipse cx="57" cy="66" rx="8.4" ry="7.6" fill="#9E643D" transform="rotate(-24 57 66)"></ellipse><ellipse cx="55.6" cy="65" rx="3.9" ry="3.3" fill="#7C4A2D" transform="rotate(-24 55.6 65)"></ellipse></g><g><ellipse cx="143" cy="66" rx="8.4" ry="7.6" fill="#9E643D" transform="rotate(24 143 66)"></ellipse><ellipse cx="144.4" cy="65" rx="3.9" ry="3.3" fill="#7C4A2D" transform="rotate(24 144.4 65)"></ellipse></g></g><g><clipPath id="aimaskable-b"><path d="M100 54 C145 54 163 70 165 112 C167 160 158 188 100 188 C42 188 33 160 35 112 C37 70 55 54 100 54 Z"></path></clipPath><path d="M100 54 C145 54 163 70 165 112 C167 160 158 188 100 188 C42 188 33 160 35 112 C37 70 55 54 100 54 Z" fill="#A96C42"></path><g clip-path="url(#aimaskable-b)"><path d="M100 54 C145 54 163 70 165 112 C167 160 158 188 100 188 C42 188 33 160 35 112 C37 70 55 54 100 54 Z" fill="#C98A59" transform="translate(-8 -7)"></path><path d="M45 100 C46 82 57 70 76 65 C63 75 56 86 51 101 Z" fill="#E0AA79" opacity="0.65"></path></g></g><g transform="translate(0 0)"><ellipse cx="47" cy="124" rx="8.5" ry="5.6" fill="#F4918F" opacity="0.55"></ellipse><ellipse cx="153" cy="124" rx="8.5" ry="5.6" fill="#F4918F" opacity="0.55"></ellipse><clipPath id="aimaskable-m"><path d="M100 98 C127 98 141 106 141 126 C141 149 126 159 100 159 C74 159 59 149 59 126 C59 106 73 98 100 98 Z"></path></clipPath><path d="M100 98 C127 98 141 106 141 126 C141 149 126 159 100 159 C74 159 59 149 59 126 C59 106 73 98 100 98 Z" fill="#E9C9A2"></path><g clip-path="url(#aimaskable-m)"><path d="M100 98 C127 98 141 106 141 126 C141 149 126 159 100 159 C74 159 59 149 59 126 C59 106 73 98 100 98 Z" fill="#F7E1C3" transform="translate(-5 -6)"></path></g><path d="M79 109 C79 101.5 88.5 100.5 100 100.5 C111.5 100.5 121 101.5 121 109 C121 116.5 111 120.5 100 120.5 C89 120.5 79 116.5 79 109 Z" fill="#3A251B"></path><ellipse cx="90.5" cy="105.2" rx="5.2" ry="2.1" fill="#FFFFFF" opacity="0.62" transform="rotate(-6 90.5 105.2)"></ellipse><g fill="#E9C9A2"><circle cx="75" cy="128" r="1.6"></circle><circle cx="70" cy="134" r="1.6"></circle><circle cx="125" cy="128" r="1.6"></circle><circle cx="130" cy="134" r="1.6"></circle></g><g stroke="#5B3324" stroke-width="2.6" stroke-linecap="round" stroke-linejoin="round" fill="none"><path d="M100 120 V132"></path><path d="M91.5 131.5 Q95.7 137 100 132 Q104.3 137 108.5 131.5"></path></g><g><g><ellipse cx="66" cy="84" rx="5.8" ry="6.264" fill="#2B1C14"></ellipse><circle cx="64.1" cy="81.9" r="2.15" fill="#FFFFFF"></circle><circle cx="68.1" cy="86.5" r="0.95" fill="#FFFFFF" opacity="0.75"></circle></g><g><ellipse cx="134" cy="84" rx="5.8" ry="6.264" fill="#2B1C14"></ellipse><circle cx="132.1" cy="81.9" r="2.15" fill="#FFFFFF"></circle><circle cx="136.1" cy="86.5" r="0.95" fill="#FFFFFF" opacity="0.75"></circle></g></g></g><g transform="translate(100 57) rotate(0)"><g><path d="M2 -27 C8 -38 20 -40 27 -35 C21 -26 11 -23 2 -27 Z" fill="#6DB85A"></path><path d="M2 -27 C11 -23 21 -26 27 -35 C19 -30 10 -28 2 -27 Z" fill="#4E9A43"></path><ellipse cx="0" cy="-13" rx="16" ry="14" fill="#EFA325"></ellipse><ellipse cx="-2.2" cy="-14.8" rx="13.6" ry="12" fill="#FFC83D"></ellipse><ellipse cx="-6.5" cy="-19.5" rx="4.6" ry="3" fill="#FFE68A" transform="rotate(-30 -6.5 -19.5)"></ellipse><g fill="#EFA325" opacity="0.75"><circle cx="5" cy="-17" r="1"></circle><circle cx="8.5" cy="-11" r="0.9"></circle><circle cx="3" cy="-8" r="0.9"></circle><circle cx="-4" cy="-10" r="0.8"></circle></g><rect x="-1.8" y="-30" width="3.6" height="5.5" rx="1.8" fill="#6B4A2B"></rect></g></g><g><circle cx="82" cy="179" r="9.5" fill="#A5683F"></circle><ellipse cx="79.15" cy="175.39" rx="4.275" ry="2.66" fill="#BF8152" opacity="0.7" transform="rotate(-25 79.15 175.39)"></ellipse></g><g><circle cx="118" cy="179" r="9.5" fill="#A5683F"></circle><ellipse cx="115.15" cy="175.39" rx="4.275" ry="2.66" fill="#BF8152" opacity="0.7" transform="rotate(-25 115.15 175.39)"></ellipse></g></g></g></g></svg>
